inDegrees=yes
name=ik_S53_A08_T02
DataType=double
version=3
OpenSimVersion=4.3-2021-08-27-4bc7ad9
endheader
time	pelvis_tilt	pelvis_list	pelvis_rotation	pelvis_tx	pelvis_ty	pelvis_tz	hip_flexion_r	hip_adduction_r	hip_rotation_r	knee_angle_r	knee_angle_r_beta	ankle_angle_r	subtalar_angle_r	mtp_angle_r	hip_flexion_l	hip_adduction_l	hip_rotation_l	knee_angle_l	knee_angle_l_beta	ankle_angle_l	subtalar_angle_l	mtp_angle_l	lumbar_extension	lumbar_bending	lumbar_rotation	arm_flex_r	arm_add_r	arm_rot_r	elbow_flex_r	pro_sup_r	wrist_flex_r	wrist_dev_r	arm_flex_l	arm_add_l	arm_rot_l	elbow_flex_l	pro_sup_l	wrist_flex_l	wrist_dev_l
15.63999999999976	-3.449230104416101	-0.4503652309910702	16.72264853964663	0	0.9399999999999999	0	44.44867638354715	-10.17571609288133	-10.40496909282136	55.17410828314623	0.9629698513927775	0	0	0	44.44867638354715	-10.17571609288133	-10.40496909282136	55.17410828314623	0.9629698513927775	0	0	0	-2.278343324991178	-1.987424822576505	3.449234822679466	14.39865793112592	-1.541784280013146	1.555966601938286	46.35323741414952	127.8434757652579	0	0	61.65875520440085	-10.81213588106951	12.92974046987043	92.61682682948826	116.380636039818	0	0
15.65999999999976	-3.450329776032178	-0.4463790840304206	16.71798235562685	0	0.9399999999999999	0	44.44877650985724	-10.17560617443437	-10.40480582541012	55.17408684967837	0.9629694773081932	0	0	0	44.44877650985724	-10.17560617443437	-10.40480582541012	55.17408684967837	0.9629694773081932	0	0	0	-2.27834210782073	-1.98324207792532	3.455507338739421	14.3700351463676	-1.561518189019976	1.539171574982977	46.36511251350758	127.8623735286659	0	0	61.54699642251499	-10.72588390959375	12.85120397991965	92.43798685283082	116.3725519921082	0	0
15.67999999999975	-3.454126684076435	-0.4306883929031761	16.67849320279956	0	0.9399999999999999	0	44.44895429131986	-10.17541342679173	-10.40451829905296	55.1740483611779	0.9629688055571358	0	0	0	44.44895429131986	-10.17541342679173	-10.40451829905296	55.1740483611779	0.9629688055571358	0	0	0	-2.277609730009345	-1.967887309331926	3.49494972620059	14.33712965068958	-1.600384362138683	1.537679940924816	46.38343646721567	127.8841251427144	0	0	61.53621019120067	-10.69145257661691	12.7926072500073	91.50149303821419	115.3810970206136	0	0
15.69999999999975	-3.47701301366687	-0.4457345721579619	16.66739829197241	0	0.9399999999999999	0	44.44911880128635	-10.17523168747962	-10.4042488743277	55.17401338576372	0.9629681951210012	0	0	0	44.44911880128635	-10.17523168747962	-10.4042488743277	55.17401338576372	0.9629681951210012	0	0	0	-2.304017748614577	-1.97573813015293	3.508195141565855	14.40312722257372	-1.588224798426569	1.536288372036933	46.38989875565146	127.8818597120566	0	0	61.49473830209276	-10.59473792204015	12.7392996981373	91.2700173672451	115.1953775400617	0	0
15.71999999999975	-3.466411066489512	-0.4324103111025677	16.63712297414185	0	0.9399999999999999	0	44.44928338039063	-10.17505145633897	-10.40398086140029	55.17397812882198	0.9629675797712836	0	0	0	44.44928338039063	-10.17505145633897	-10.40398086140029	55.17397812882198	0.9629675797712836	0	0	0	-2.290069859164531	-1.966788119916284	3.540113149773648	14.34421621692798	-1.610410286052522	1.532783143219936	46.3951975555944	127.8873653456923	0	0	61.30445582477111	-10.45141506968359	12.60553262209485	90.25342888272471	114.441305379419	0	0
15.73999999999975	-3.488692264167557	-0.4497617412644241	16.60502838960198	0	0.9399999999999999	0	44.44954027589626	-10.1747672206559	-10.40355958673872	55.1739236667586	0.9629666292289601	0	0	0	44.44954027589626	-10.1747672206559	-10.40355958673872	55.1739236667586	0.9629666292289601	0	0	0	-2.316688145175781	-1.977307161020089	3.570085429166218	14.37106351803733	-1.589097927730327	1.515885565340414	46.44901412618292	127.9004915278406	0	0	60.99149128954149	-10.06694160941229	12.28571407608954	88.96014193679945	114.122420823798	0	0
15.75999999999975	-3.501676434769991	-0.4492646205471141	16.61088020304371	0	0.9399999999999999	0	44.44943030831001	-10.17414562273426	-10.40313516108173	55.17397033089012	0.9629674436716978	0	0	0	44.44943030831001	-10.17414562273426	-10.40313516108173	55.17397033089012	0.9629674436716978	0	0	0	-2.328653367262557	-1.973862343353883	3.573550775673048	14.37071900158117	-1.596382277072815	1.513709515470166	46.46946933609436	127.9007342546248	0	0	61.01721515779682	-10.05061577193872	12.28936780449305	88.96099098483116	114.1231385579023	0	0
15.77999999999975	-3.51217312785939	-0.4477709579951115	16.60658393868172	0	0.9399999999999999	0	44.44964714193499	-10.17390721333781	-10.40278055815701	55.17392428818793	0.9629666400749481	0	0	0	44.44964714193499	-10.17390721333781	-10.40278055815701	55.17392428818793	0.9629666400749481	0	0	0	-2.338765483878005	-1.968539453898858	3.575607546624667	14.37857765039417	-1.608950002312122	1.508638465857087	46.46908652397843	127.9107599404618	0	0	60.64341961641184	-9.596637250044745	11.75529237715465	87.9760438069211	114.3571625644496	0	0
15.79999999999975	-3.525019739036724	-0.456989634028269	16.67254620531886	0	0.9399999999999999	0	44.44995266887486	-10.17357221814593	-10.40228173271812	55.17385930368552	0.9629655058814183	0	0	0	44.44995266887486	-10.17357221814593	-10.40228173271812	55.17385930368552	0.9629655058814183	0	0	0	-2.354497732603043	-1.970994048704065	3.529510138772057	14.3936246655158	-1.595517991276113	1.480180392023068	46.48842423756601	127.9207775226982	0	0	60.42368712608871	-9.34203058282667	11.4724549189732	85.53419871677777	114.0726249887156	0	0
15.81999999999975	-3.539958650877724	-0.4627597589941049	16.68118388888843	0	0.9399999999999999	0	44.4501779114044	-10.17332547734234	-10.40191413640253	55.17381140058487	0.9629646698145901	0	0	0	44.4501779114044	-10.17332547734234	-10.40191413640253	55.17381140058487	0.9629646698145901	0	0	0	-2.370743613781206	-1.971617368039656	3.528865890904471	14.38697964123416	-1.622634261204356	1.456408157183551	46.62471466974606	127.8924267029607	0	0	60.16851993165196	-9.130201036833139	11.2272523674128	84.29295833199944	113.93581058138	0	0
15.83999999999975	-3.535293883162885	-0.4549309471662026	16.67852428927842	0	0.9399999999999999	0	44.45036045712197	-10.17312633488177	-10.4016169934041	55.17377245502522	0.9629639900863451	0	0	0	44.45036045712197	-10.17312633488177	-10.4016169934041	55.17377245502522	0.9629639900863451	0	0	0	-2.364310173512481	-1.964856892435992	3.525134281872171	14.34569836249354	-1.640219054025901	1.451756671926701	46.6333962727874	127.8834237518099	0	0	59.82404156796379	-8.954189736515405	10.98846408319426	83.0347326042569	113.5899703831053	0	0
15.85999999999975	-3.566386551869276	-0.472916202340101	16.6832481389736	0	0.9399999999999999	0	44.45062278924785	-10.17283897403409	-10.40118873991682	55.17371674974162	0.9629630178457356	0	0	0	44.45062278924785	-10.17283897403409	-10.40118873991682	55.17371674974162	0.9629630178457356	0	0	0	-2.399584370518502	-1.972763254694212	3.533844662868127	14.42383126151855	-1.630594711468054	1.429782976350844	46.66864531444415	127.890768748036	0	0	59.56907300527198	-8.788871464184096	10.82915922205932	81.70798436598903	113.0447880790438	0	0
15.87999999999975	-3.583944064566816	-0.4679631697869543	16.67331534717759	0	0.9399999999999999	0	44.45082483734956	-10.17261853569693	-10.40085971988067	55.17367371890018	0.9629622668158724	0	0	0	44.45082483734956	-10.17261853569693	-10.40085971988067	55.17367371890018	0.9629622668158724	0	0	0	-2.415307024810626	-1.962359705163959	3.53851938466614	14.43392031811095	-1.646528662291589	1.429859216099612	46.65767497224427	127.8920778891874	0	0	59.21558241350113	-8.622164909073541	10.62014924962191	80.34407212146131	112.3768465351152	0	0
15.89999999999975	-3.606587239711034	-0.4737748083236715	16.65968023462763	0	0.9399999999999999	0	44.45105998265038	-10.17236159152986	-10.40047634619709	55.17362375415696	0.9629613947665934	0	0	0	44.45105998265038	-10.17236159152986	-10.40047634619709	55.17362375415696	0.9629613947665934	0	0	0	-2.439162594209356	-1.96062742692163	3.548729890251957	14.45377315077908	-1.657699958078247	1.438327118861822	46.69643266012458	127.8900797290141	0	0	58.84479240029406	-8.44956138813051	10.46251544071753	78.95253946273414	111.7195978291118	0	0
15.91999999999975	-3.613892295772997	-0.4767245079802775	16.63858184479192	0	0.9399999999999999	0	44.4512302856476	-10.17217625646788	-10.40019939905982	55.17358745299822	0.962960761191851	0	0	0	44.4512302856476	-10.17217625646788	-10.40019939905982	55.17358745299822	0.962960761191851	0	0	0	-2.447198268480359	-1.961462310323338	3.564790656320932	14.4644609383782	-1.655096371794549	1.448088040196806	46.71789778901552	127.800366430485	0	0	58.46814013712866	-8.269438924337992	10.31666259999984	79.19818242237857	112.0310250279534	0	0
15.93999999999975	-3.650492497210457	-0.4788971344384584	16.63639000085196	0	0.9399999999999999	0	44.45152395777333	-10.17185612443758	-10.39972120954416	55.17352500951846	0.9629596713475329	0	0	0	44.45152395777333	-10.17185612443758	-10.39972120954416	55.17352500951846	0.9629596713475329	0	0	0	-2.483520228930781	-1.952396513498756	3.561392779489903	14.48038045995896	-1.658923004885288	1.456412576175506	46.79531057715672	127.8001674194157	0	0	58.18924585742932	-8.048155614399851	10.0656960046934	76.76438889123676	110.8741546552115	0	0
15.95999999999975	-3.665663291989458	-0.478769458068834	16.63547818668827	0	0.9399999999999999	0	44.45172964923792	-10.17163251675122	-10.39938682836892	55.17348119988873	0.96295890672525	0	0	0	44.45172964923792	-10.17163251675122	-10.39938682836892	55.17348119988873	0.96295890672525	0	0	0	-2.49838852232879	-1.947046471938211	3.552863742488747	14.43973777883959	-1.651745001764958	1.463931087363116	46.83668528378432	127.8108771500829	0	0	57.85364026043879	-7.84613020394134	9.796398608687582	75.1961261210201	110.3407477093724	0	0
15.97999999999975	-3.687129376979485	-0.4961764026171241	16.66826080030172	0	0.9399999999999999	0	44.45204566671561	-10.17129109949193	-10.39887511513583	55.1734135567985	0.9629577261306093	0	0	0	44.45204566671561	-10.17129109949193	-10.39887511513583	55.1734135567985	0.9629577261306093	0	0	0	-2.525006454999938	-1.95471477431726	3.511591945983718	14.50034811772739	-1.64062430240962	1.467673010310823	46.84546244244837	127.804348304609	0	0	57.90803969376677	-7.851201354490272	9.800365022998724	73.29630933467216	109.5904556154548	0	0
15.99999999999975	-3.695835776169198	-0.4885669569763202	16.64135536588066	0	0.9399999999999999	0	44.45221794401226	-10.1711041272361	-10.39859525685256	55.17337687438135	0.9629570859016525	0	0	0	44.45221794401226	-10.1711041272361	-10.39859525685256	55.17337687438135	0.9629570859016525	0	0	0	-2.531694743219933	-1.94394130135137	3.515422584621826	14.43296881491035	-1.660493786296773	1.49458489081784	46.88756062981395	127.795128634329	0	0	57.13307007499755	-7.543107881917332	9.481972020253727	71.90216219042311	109.2363335258647	0	0
16.01999999999975	-3.729369164494622	-0.5056110650503371	16.65105313483878	0	0.9399999999999999	0	44.45244989870135	-10.17085300936375	-10.39821901866643	55.17332740443649	0.9629562224882339	0	0	0	44.45244989870135	-10.17085300936375	-10.39821901866643	55.17332740443649	0.9629562224882339	0	0	0	-2.569555986681765	-1.94859030532514	3.487171696205603	14.47899465886574	-1.645216235981843	1.526142501981322	46.96582547557504	127.7802200270632	0	0	56.92667475639741	-7.415381576475791	9.27558656394949	69.96427292507654	108.2864714753686	0	0
16.03999999999975	-3.74344977460267	-0.5115923040872904	16.63454203755726	0	0.9399999999999999	0	44.45267928012836	-10.17060506641637	-10.3978472716428	55.17327845587312	0.962955368174639	0	0	0	44.45267928012836	-10.17060506641637	-10.3978472716428	55.17327845587312	0.962955368174639	0	0	0	-2.585415561849912	-1.9489005727	3.479881924728435	14.45608638363992	-1.647486011308025	1.574149922478	47.02615254975192	127.6976320088997	0	0	56.66930079759905	-7.27451211818276	9.096271757524729	68.06237227035268	106.9947160125248	0	0
16.05999999999975	-3.7626591420105	-0.5074161256787455	16.57870453507751	0	0.9399999999999999	0	44.45287841507741	-10.17039024827888	-10.39752492314118	55.17323591330235	0.9629546256667066	0	0	0	44.45287841507741	-10.17039024827888	-10.39752492314118	55.17323591330235	0.9629546256667066	0	0	0	-2.602948291595855	-1.94011605877948	3.522719738828302	14.43358183185308	-1.673837243890245	1.615579549845254	47.06993177480825	127.6271034954114	0	0	56.32220555696743	-7.049491676035897	9.028356270796397	66.13679906235701	105.4988758007079	0	0
